0
SECTION
2
HEADER
9
$INSUNITS
70
4
9
$ACADVER
1
AC1014
9
$HANDSEED
5
FFFF
0
ENDSEC
0
SECTION
2
TABLES
0
TABLE
2
VPORT
5
8
100
AcDbSymbolTable
0
ENDTAB
0
TABLE
2
LTYPE
5
5
100
AcDbSymbolTable
0
LTYPE
5
14
100
AcDbSymbolTableRecord
100
AcDbLinetypeTableRecord
2
BYBLOCK
70
0
0
LTYPE
5
15
100
AcDbSymbolTableRecord
100
AcDbLinetypeTableRecord
2
BYLAYER
70
0
0
ENDTAB
0
TABLE
2
LAYER
5
2
100
AcDbSymbolTable
70
2
0
LAYER
5
50
100
AcDbSymbolTableRecord
100
AcDbLayerTableRecord
2
0
70
0
6
CONTINUOUS
0
ENDTAB
0
TABLE
2
STYLE
5
3
100
AcDbSymbolTable
70
1
0
STYLE
5
11
100
AcDbSymbolTableRecord
100
AcDbTextStyleTableRecord
2
STANDARD
70
0
0
ENDTAB
0
TABLE
2
VIEW
5
6
100
AcDbSymbolTable
70
0
0
ENDTAB
0
TABLE
2
UCS
5
7
100
AcDbSymbolTable
70
0
0
ENDTAB
0
TABLE
2
APPID
5
9
100
AcDbSymbolTable
70
2
0
APPID
5
12
100
AcDbSymbolTableRecord
100
AcDbRegAppTableRecord
2
ACAD
70
0
0
ENDTAB
0
TABLE
2
DIMSTYLE
5
A
100
AcDbSymbolTable
70
1
0
ENDTAB
0
TABLE
2
BLOCK_RECORD
5
1
100
AcDbSymbolTable
70
1
0
BLOCK_RECORD
5
1F
100
AcDbSymbolTableRecord
100
AcDbBlockTableRecord
2
*MODEL_SPACE
0
BLOCK_RECORD
5
1B
100
AcDbSymbolTableRecord
100
AcDbBlockTableRecord
2
*PAPER_SPACE
0
ENDTAB
0
ENDSEC
0
SECTION
2
BLOCKS
0
BLOCK
5
20
100
AcDbEntity
100
AcDbBlockBegin
2
*MODEL_SPACE
0
ENDBLK
5
21
100
AcDbEntity
100
AcDbBlockEnd
0
BLOCK
5
1C
100
AcDbEntity
100
AcDbBlockBegin
2
*PAPER_SPACE
0
ENDBLK
5
1D
100
AcDbEntity
100
AcDbBlockEnd
0
ENDSEC
0
SECTION
2
ENTITIES
0
LWPOLYLINE
5
100
100
AcDbEntity
8
0
100
AcDbPolyline
90
32
70
1
43
0.0
10
40.249999999999829
20
-173.36789757638957
10
62.499999999999645
20
-173.36789757638957
10
62.499999999999645
20
-173.1179841858922
10
67.249999999999631
20
-173.1179841858922
10
67.249999999999645
20
-158.41158418589217
10
62.499999999999687
20
-158.41158418589217
10
62.499999999999687
20
-143.70518418589216
10
67.249999999999659
20
-143.70518418589216
10
67.249999999999659
20
-128.99878418589216
10
62.49999999999968
20
-128.99878418589216
10
62.499999999999687
20
-114.29238418589213
10
67.249999999999673
20
-114.29238418589216
10
67.249999999999687
20
-99.585984185892187
10
-67.249999999999986
20
-99.58598418589213
10
-67.25
20
-114.2923841858921
10
-62.500000000000007
20
-114.29238418589208
10
-62.500000000000014
20
-128.99878418589211
10
-67.25
20
-128.99878418589211
10
-67.25
20
-143.70518418589211
10
-62.500000000000014
20
-143.70518418589211
10
-62.500000000000057
20
-158.41158418589208
10
-67.25
20
-158.41158418589208
10
-67.25
20
-173.11798418589208
10
-62.499999999999986
20
-173.11798418589211
10
-62.499999999999993
20
-173.36789757638951
10
-40.249999999999837
20
-173.36789757638957
10
-40.249999999999844
20
-178.11789757638959
10
-13.500000000000028
20
-178.11789757638959
10
-13.500000000000018
20
-173.36789757638954
10
13.499999999999995
20
-173.36789757638957
10
13.49999999999998
20
-178.11789757638959
10
40.249999999999829
20
-178.11789757638957
0
ENDSEC
0
SECTION
2
OBJECTS
0
DICTIONARY
5
C
100
AcDbDictionary
3
ACAD_GROUP
350
D
3
ACAD_MLINESTYLE
350
17
0
DICTIONARY
5
D
100
AcDbDictionary
0
DICTIONARY
5
1A
330
C
100
AcDbDictionary
0
DICTIONARY
5
17
100
AcDbDictionary
0
ENDSEC
0
EOF
