0
SECTION
2
HEADER
9
$INSUNITS
70
4
9
$ACADVER
1
AC1014
9
$HANDSEED
5
FFFF
0
ENDSEC
0
SECTION
2
TABLES
0
TABLE
2
VPORT
5
8
100
AcDbSymbolTable
0
ENDTAB
0
TABLE
2
LTYPE
5
5
100
AcDbSymbolTable
0
LTYPE
5
14
100
AcDbSymbolTableRecord
100
AcDbLinetypeTableRecord
2
BYBLOCK
70
0
0
LTYPE
5
15
100
AcDbSymbolTableRecord
100
AcDbLinetypeTableRecord
2
BYLAYER
70
0
0
ENDTAB
0
TABLE
2
LAYER
5
2
100
AcDbSymbolTable
70
2
0
LAYER
5
50
100
AcDbSymbolTableRecord
100
AcDbLayerTableRecord
2
0
70
0
6
CONTINUOUS
0
ENDTAB
0
TABLE
2
STYLE
5
3
100
AcDbSymbolTable
70
1
0
STYLE
5
11
100
AcDbSymbolTableRecord
100
AcDbTextStyleTableRecord
2
STANDARD
70
0
0
ENDTAB
0
TABLE
2
VIEW
5
6
100
AcDbSymbolTable
70
0
0
ENDTAB
0
TABLE
2
UCS
5
7
100
AcDbSymbolTable
70
0
0
ENDTAB
0
TABLE
2
APPID
5
9
100
AcDbSymbolTable
70
2
0
APPID
5
12
100
AcDbSymbolTableRecord
100
AcDbRegAppTableRecord
2
ACAD
70
0
0
ENDTAB
0
TABLE
2
DIMSTYLE
5
A
100
AcDbSymbolTable
70
1
0
ENDTAB
0
TABLE
2
BLOCK_RECORD
5
1
100
AcDbSymbolTable
70
1
0
BLOCK_RECORD
5
1F
100
AcDbSymbolTableRecord
100
AcDbBlockTableRecord
2
*MODEL_SPACE
0
BLOCK_RECORD
5
1B
100
AcDbSymbolTableRecord
100
AcDbBlockTableRecord
2
*PAPER_SPACE
0
ENDTAB
0
ENDSEC
0
SECTION
2
BLOCKS
0
BLOCK
5
20
100
AcDbEntity
100
AcDbBlockBegin
2
*MODEL_SPACE
0
ENDBLK
5
21
100
AcDbEntity
100
AcDbBlockEnd
0
BLOCK
5
1C
100
AcDbEntity
100
AcDbBlockBegin
2
*PAPER_SPACE
0
ENDBLK
5
1D
100
AcDbEntity
100
AcDbBlockEnd
0
ENDSEC
0
SECTION
2
ENTITIES
0
CIRCLE
5
100
100
AcDbEntity
8
0
100
AcDbCircle
10
-20
20
-115.08144368403325
30
1.7763568394002505e-14
40
2.2499999999999969
210
-0
220
3.3306690738754691e-16
230
1
0
CIRCLE
5
101
100
AcDbEntity
8
0
100
AcDbCircle
10
0
20
-115.08144368403325
30
1.7763568394002505e-14
40
2.2500000000000004
210
-0
220
2.7755575615628914e-16
230
1
0
LWPOLYLINE
5
102
100
AcDbEntity
8
0
100
AcDbPolyline
90
8
70
1
43
0.0
10
-29.000000000000547
20
-7.5435506554299003
10
28.999999999999453
20
-7.5435506554299003
42
-0.41421356237309453
10
34.999999999999453
20
-13.543550655429893
10
34.999999999999446
20
-71.543550655429925
42
-0.4142135623730942
10
28.999999999999439
20
-77.543550655429911
10
-29.000000000000568
20
-77.543550655429897
42
-0.41421356237309481
10
-35.000000000000561
20
-71.543550655429897
10
-35.000000000000547
20
-13.543550655429897
42
-0.41421356237309481
0
LWPOLYLINE
5
103
100
AcDbEntity
8
0
100
AcDbPolyline
90
4
70
1
43
0.0
10
-62.499999999999858
20
-29.117897576389598
10
-62.499999999999858
20
-127.11789757638961
10
-86.999999999999858
20
-127.11789757638957
10
-86.999999999999858
20
-29.117897576389566
0
LWPOLYLINE
5
104
100
AcDbEntity
8
0
100
AcDbPolyline
90
4
70
1
43
0.0
10
62.499999999999858
20
-127.11789757638957
10
62.499999999999858
20
-29.117897576389566
10
86.999999999999858
20
-29.117897576389595
10
86.999999999999858
20
-127.11789757638961
0
SPLINE
5
105
100
AcDbEntity
8
0
100
AcDbSpline
70
0
71
3
72
16
73
12
74
0
42
0.000000001
43
0.0000000001
44
0.0000000001
40
0
40
0
40
0
40
0
40
0.70201647800884415
40
0.70201647800884415
40
1.1427081858880985
40
1.1427081858880985
40
1.5330138055076021
40
1.5330138055076021
40
1.9740526262207672
40
1.9740526262207672
40
2.5456479675928554
40
2.5456479675928554
40
2.5456479675928554
40
2.5456479675928554
10
-137.75000000000014
20
-178.11789757638962
30
0
10
-140.0900549266963
20
-178.11789757638962
30
0
10
-142.27800423885117
20
-177.95488916961341
30
0
10
-145.20081532083236
20
-177.12414454575151
30
1.7763568394002505e-14
10
-146.11987160434941
20
-176.68215037857581
30
1.7763568394002505e-14
10
-147.53557944330996
20
-175.58771146230075
30
1.7763568394002505e-14
10
-148.06362103054201
20
-174.96846900793301
30
0
10
-148.95846088566014
20
-173.4198727274586
30
1.7763568394002505e-14
10
-149.31320278836822
20
-172.43049304971294
30
0
10
-149.88001077504214
20
-169.67652082806151
30
1.7763568394002505e-14
10
-150.00000000000014
20
-167.87003238573701
30
0
10
-150.00000000000014
20
-165.86789757638968
30
0
0
LINE
5
106
100
AcDbEntity
8
0
100
AcDbLine
10
-137.75000000000014
20
-178.11789757638962
30
0
11
137.74999999999983
21
-178.11789757638962
31
3.6977854932234928e-31
0
SPLINE
5
107
100
AcDbEntity
8
0
100
AcDbSpline
70
0
71
3
72
16
73
12
74
0
42
0.000000001
43
0.0000000001
44
0.0000000001
40
0
40
0
40
0
40
0
40
0.70201647800869071
40
0.70201647800869071
40
1.1427081858866124
40
1.1427081858866124
40
1.5330138055038467
40
1.5330138055038467
40
1.9740526262196139
40
1.9740526262196139
40
2.5456479676009085
40
2.5456479676009085
40
2.5456479676009085
40
2.5456479676009085
10
149.99999999999986
20
-165.86789757638968
30
0
10
149.99999999999986
20
-168.20795250308527
30
1.7763568394002505e-14
10
149.83699159322373
20
-170.39590181524051
30
-1.7763568394002505e-14
10
149.00624696936259
20
-173.31871289721875
30
0
10
148.56425280218761
20
-174.23776918073682
30
-1.7763568394002505e-14
10
147.46981388591101
20
-175.65347701969941
30
1.7763568394002505e-14
10
146.85057143154341
20
-176.18151860693146
30
0
10
145.30197515105897
20
-177.0763584620554
30
0
10
144.31259547330859
20
-177.43110036476082
30
0
10
141.55862325167487
20
-177.99790835143102
30
0
10
139.7521348093529
20
-178.11789757638962
30
-1.7763568394002505e-14
10
137.74999999999983
20
-178.11789757638962
30
0
0
LINE
5
108
100
AcDbEntity
8
0
100
AcDbLine
10
149.99999999999986
20
-165.86789757638968
30
0
11
149.99999999999986
21
9.6321024236104691
31
0
0
SPLINE
5
109
100
AcDbEntity
8
0
100
AcDbSpline
70
0
71
3
72
16
73
12
74
0
42
0.000000001
43
0.0000000001
44
0.0000000001
40
0
40
0
40
0
40
0
40
0.70201647800869171
40
0.70201647800869171
40
1.1427081858867412
40
1.1427081858867412
40
1.5330138055042362
40
1.5330138055042362
40
1.9740526262182829
40
1.9740526262182829
40
2.5456479675947592
40
2.5456479675947592
40
2.5456479675947592
40
2.5456479675947592
10
137.74999999999986
20
21.882102423610441
30
1.7763568394002505e-14
10
140.0900549266955
20
21.882102423610444
30
1.7763568394002505e-14
10
142.27800423885074
20
21.719094016834305
30
1.7763568394002505e-14
10
145.20081532082929
20
20.888349392973083
30
0
10
146.11987160434728
20
20.446355225798033
30
0
10
147.53557944330967
20
19.351916309521521
30
0
10
148.06362103054173
20
18.732673855153791
30
0
10
148.9584608856633
20
17.184077574673452
30
0
10
149.31320278836978
20
16.194697896924914
30
0
10
149.8800107750414
20
13.440725675284684
30
0
10
149.99999999999986
20
11.634237232962281
30
1.7763568394002505e-14
10
149.99999999999986
20
9.6321024236104691
30
1.7763568394002505e-14
0
LINE
5
110
100
AcDbEntity
8
0
100
AcDbLine
10
137.74999999999986
20
21.882102423610441
30
1.7763568394002505e-14
11
-137.75000000000011
21
21.882102423610441
31
1.7763568394002501e-14
0
SPLINE
5
111
100
AcDbEntity
8
0
100
AcDbSpline
70
0
71
3
72
16
73
12
74
0
42
0.000000001
43
0.0000000001
44
0.0000000001
40
0
40
0
40
0
40
0
40
0.70201647800855871
40
0.70201647800855871
40
1.1427081858842085
40
1.1427081858842085
40
1.5330138054975495
40
1.5330138054975495
40
1.9740526262065461
40
1.9740526262065461
40
2.5456479675765071
40
2.5456479675765071
40
2.5456479675765071
40
2.5456479675765071
10
-150.00000000000014
20
9.6321024236104424
30
1.7763568394002505e-14
10
-150.00000000000014
20
11.972157350305634
30
1.7763568394002505e-14
10
-149.83699159322407
20
14.16010666246124
30
0
10
-149.0062469693645
20
17.082917744434013
30
1.7763568394002505e-14
10
-148.56425280219077
20
18.001974027953953
30
1.7763568394002505e-14
10
-147.46981388591121
20
19.417681866920265
30
1.7763568394002505e-14
10
-146.8505714315435
20
19.945723454152311
30
0
10
-145.30197515106386
20
20.84056330927347
30
0
10
-144.31259547331567
20
21.195305211980124
30
-1.7763568394002505e-14
10
-141.55862325167308
20
21.762113198652237
30
0
10
-139.75213480934946
20
21.882102423610434
30
1.7763568394002505e-14
10
-137.75000000000011
20
21.882102423610434
30
1.7763568394002505e-14
0
LINE
5
112
100
AcDbEntity
8
0
100
AcDbLine
10
-150.00000000000014
20
9.6321024236104424
30
1.7763568394002505e-14
11
-150.00000000000017
21
-165.86789757638965
31
4.8452402708090137e-30
0
CIRCLE
5
113
100
AcDbEntity
8
0
100
AcDbCircle
10
-2.6090241078691179e-14
20
-42.543550655430096
30
1.7763568394002505e-14
40
29.749999999999996
210
0
220
3.3306690738754696e-16
230
1
0
CIRCLE
5
114
100
AcDbEntity
8
0
100
AcDbCircle
10
25.249999999999954
20
-17.293550655430082
30
1.7763568394002505e-14
40
2.2500000000000004
210
0
220
2.2204460492503131e-16
230
1
0
CIRCLE
5
115
100
AcDbEntity
8
0
100
AcDbCircle
10
-25.250000000000028
20
-17.293550655430082
30
1.7763568394002505e-14
40
2.2500000000000004
210
0
220
2.2204460492503131e-16
230
1
0
CIRCLE
5
116
100
AcDbEntity
8
0
100
AcDbCircle
10
25.249999999999982
20
-67.793550655430124
30
1.7763568394002505e-14
40
2.2500000000000004
210
0
220
2.2204460492503131e-16
230
1
0
CIRCLE
5
117
100
AcDbEntity
8
0
100
AcDbCircle
10
-25.250000000000025
20
-67.793550655430138
30
1.7763568394002505e-14
40
2.2500000000000004
210
0
220
2.2204460492503131e-16
230
1
0
ENDSEC
0
SECTION
2
OBJECTS
0
DICTIONARY
5
C
100
AcDbDictionary
3
ACAD_GROUP
350
D
3
ACAD_MLINESTYLE
350
17
0
DICTIONARY
5
D
100
AcDbDictionary
0
DICTIONARY
5
1A
330
C
100
AcDbDictionary
0
DICTIONARY
5
17
100
AcDbDictionary
0
ENDSEC
0
EOF
