0
SECTION
2
HEADER
9
$INSUNITS
70
4
9
$ACADVER
1
AC1014
9
$HANDSEED
5
FFFF
0
ENDSEC
0
SECTION
2
TABLES
0
TABLE
2
VPORT
5
8
100
AcDbSymbolTable
0
ENDTAB
0
TABLE
2
LTYPE
5
5
100
AcDbSymbolTable
0
LTYPE
5
14
100
AcDbSymbolTableRecord
100
AcDbLinetypeTableRecord
2
BYBLOCK
70
0
0
LTYPE
5
15
100
AcDbSymbolTableRecord
100
AcDbLinetypeTableRecord
2
BYLAYER
70
0
0
ENDTAB
0
TABLE
2
LAYER
5
2
100
AcDbSymbolTable
70
2
0
LAYER
5
50
100
AcDbSymbolTableRecord
100
AcDbLayerTableRecord
2
0
70
0
6
CONTINUOUS
0
ENDTAB
0
TABLE
2
STYLE
5
3
100
AcDbSymbolTable
70
1
0
STYLE
5
11
100
AcDbSymbolTableRecord
100
AcDbTextStyleTableRecord
2
STANDARD
70
0
0
ENDTAB
0
TABLE
2
VIEW
5
6
100
AcDbSymbolTable
70
0
0
ENDTAB
0
TABLE
2
UCS
5
7
100
AcDbSymbolTable
70
0
0
ENDTAB
0
TABLE
2
APPID
5
9
100
AcDbSymbolTable
70
2
0
APPID
5
12
100
AcDbSymbolTableRecord
100
AcDbRegAppTableRecord
2
ACAD
70
0
0
ENDTAB
0
TABLE
2
DIMSTYLE
5
A
100
AcDbSymbolTable
70
1
0
ENDTAB
0
TABLE
2
BLOCK_RECORD
5
1
100
AcDbSymbolTable
70
1
0
BLOCK_RECORD
5
1F
100
AcDbSymbolTableRecord
100
AcDbBlockTableRecord
2
*MODEL_SPACE
0
BLOCK_RECORD
5
1B
100
AcDbSymbolTableRecord
100
AcDbBlockTableRecord
2
*PAPER_SPACE
0
ENDTAB
0
ENDSEC
0
SECTION
2
BLOCKS
0
BLOCK
5
20
100
AcDbEntity
100
AcDbBlockBegin
2
*MODEL_SPACE
0
ENDBLK
5
21
100
AcDbEntity
100
AcDbBlockEnd
0
BLOCK
5
1C
100
AcDbEntity
100
AcDbBlockBegin
2
*PAPER_SPACE
0
ENDBLK
5
1D
100
AcDbEntity
100
AcDbBlockEnd
0
ENDSEC
0
SECTION
2
ENTITIES
0
LWPOLYLINE
5
100
100
AcDbEntity
8
0
100
AcDbPolyline
90
4
70
1
43
0.0
10
-188.37464871603351
20
-17.49211341295641
10
-178.0205013033864
20
-39.696654195354334
10
-173.48896236820312
20
-37.583562886650846
10
-183.84310978085026
20
-15.379022104252918
0
LWPOLYLINE
5
101
100
AcDbEntity
8
0
100
AcDbPolyline
90
4
70
1
43
0.0
10
-169.73605956438445
20
-35.83355556891879
10
-156.45285011446046
20
-29.639493277542389
10
-158.56594142316393
20
-25.107954342359136
10
-171.84915087308795
20
-31.302016633735533
0
LWPOLYLINE
5
102
100
AcDbEntity
8
0
100
AcDbPolyline
90
4
70
1
43
0.0
10
-143.16964066453647
20
-23.445430986165995
10
-129.88643121461251
20
-17.251368694789605
10
-131.99952252331602
20
-12.719829759606354
10
-145.28273197323995
20
-18.913892050982746
0
LWPOLYLINE
5
103
100
AcDbEntity
8
0
100
AcDbPolyline
90
4
70
1
43
0.0
10
-116.60322176468854
20
-11.057306403413211
10
-103.3200123147646
20
-4.8632441120368286
10
-105.43310362346809
20
-0.33170517685357837
10
-118.71631307339203
20
-6.5257674682299616
0
SPLINE
5
104
100
AcDbEntity
8
0
100
AcDbSpline
70
0
71
3
72
16
73
12
74
0
42
0.000000001
43
0.0000000001
44
0.0000000001
40
0
40
0
40
0
40
0
40
0.70201647800868605
40
0.70201647800868605
40
1.1427081858862764
40
1.1427081858862764
40
1.5330138055029521
40
1.5330138055029521
40
1.9740526262168445
40
1.9740526262168445
40
2.5456479675943955
40
2.5456479675943955
40
2.5456479675943955
40
2.5456479675943955
10
-1.93601760238002
20
55.929268543984563
30
0
10
-0.94706765688215955
20
53.808458541826845
30
0
10
-0.17013611021599806
20
51.756612713058196
30
0
10
0.31218690700177748
20
48.756558420538539
30
0
10
0.30001412044888204
20
47.736815747429958
30
0
10
-0.093580405773707159
20
45.991218836430427
30
-8.8817841970012523e-15
10
-0.43164464650802059
20
45.250947464381923
30
-8.8817841970012523e-15
10
-1.4569738503765866
20
43.785482067338322
30
-8.8817841970012523e-15
10
-2.2037359503683014
20
43.045846798915655
30
-8.8817841970012523e-15
10
-4.4601390140542225
20
41.368265353649846
30
-8.8817841970012523e-15
10
-6.046663918843695
20
40.496063179360419
30
0
10
-7.8612142872554251
20
39.649924446462045
30
0
0
LINE
5
105
100
AcDbEntity
8
0
100
AcDbLine
10
-7.8612142872554251
20
39.649924446462045
30
1.2445630152764216e-30
11
-189.12277169458554
21
-44.873727901678109
31
0
0
SPLINE
5
106
100
AcDbEntity
8
0
100
AcDbSpline
70
0
71
3
72
16
73
12
74
0
42
0.000000001
43
0.0000000001
44
0.0000000001
40
0
40
0
40
0
40
0
40
0.70201647800867717
40
0.70201647800867717
40
1.1427081858856982
40
1.1427081858856982
40
1.5330138055013673
40
1.5330138055013673
40
1.9740526262114511
40
1.9740526262114511
40
2.5456479675812056
40
2.5456479675812056
40
2.5456479675812056
40
2.5456479675812056
10
-189.12277169458554
20
-44.873727901678102
30
8.8817841970012523e-15
10
-191.24358169674323
20
-45.862677847175945
30
8.8817841970012523e-15
10
-193.29542752551194
20
-46.639609393842122
30
8.8817841970012523e-15
10
-196.29548181803014
20
-47.121932411059674
30
8.8817841970012523e-15
10
-197.31522449113902
20
-47.109759624507276
30
8.8817841970012523e-15
10
-199.06082140213971
20
-46.716165098284428
30
8.8817841970012523e-15
10
-199.80109277418819
20
-46.37810085755013
30
8.8817841970012523e-15
10
-201.26655817122708
20
-45.352771653684876
30
8.8817841970012523e-15
10
-202.00619343964991
20
-44.606009553695884
30
8.8817841970012523e-15
10
-203.68377488492126
20
-42.349606490002536
30
0
10
-204.55597705921105
20
-40.763081585211609
30
0
10
-205.40211579210808
20
-38.94853121680265
30
-8.8817841970012523e-15
0
LINE
5
107
100
AcDbEntity
8
0
100
AcDbLine
10
-205.40211579210808
20
-38.94853121680265
30
-8.8817841970012507e-15
11
-226.11041061740221
21
5.460550347993256
31
-8.8817841970012507e-15
0
SPLINE
5
108
100
AcDbEntity
8
0
100
AcDbSpline
70
0
71
3
72
16
73
12
74
0
42
0.000000001
43
0.0000000001
44
0.0000000001
40
0
40
0
40
0
40
0
40
0.70201647800870315
40
0.70201647800870315
40
1.1427081858895833
40
1.1427081858895833
40
1.5330138055121263
40
1.5330138055121263
40
1.9740526262338136
40
1.9740526262338136
40
2.5456479676224859
40
2.5456479676224859
40
2.5456479676224859
40
2.5456479676224859
10
-226.11041061740221
20
5.4605503479932551
30
0
10
-227.09936056290007
20
7.5813603501510274
30
8.8817841970012523e-15
10
-227.87629210956621
20
9.6332061789196484
30
8.8817841970012523e-15
10
-228.35861512678537
20
12.633260471447889
30
8.8817841970012523e-15
10
-228.3464423402296
20
13.653003144554699
30
0
10
-227.95284781400855
20
15.398600055547442
30
0
10
-227.61478357327411
20
16.138871427596012
30
0
10
-226.58945436940434
20
17.604336824641344
30
0
10
-225.84269226941154
20
18.343972093063922
30
0
10
-223.58628920572897
20
20.02155353832725
30
0
10
-221.99976430094043
20
20.893755712616478
30
0
10
-220.18521393252681
20
21.739894445515727
30
0
0
SPLINE
5
109
100
AcDbEntity
8
0
100
AcDbSpline
70
0
71
3
72
16
73
12
74
0
42
0.000000001
43
0.0000000001
44
0.0000000001
40
0
40
0
40
0
40
0
40
0.70201647800859812
40
0.70201647800859812
40
1.1427081858861849
40
1.1427081858861849
40
1.5330138055029088
40
1.5330138055029088
40
1.974052626215701
40
1.974052626215701
40
2.5456479675904111
40
2.5456479675904111
40
2.5456479675904111
40
2.5456479675904111
10
-220.18521393252681
20
21.739894445515734
30
0
10
-218.06440393036937
20
22.728844391013475
30
0
10
-216.01255810160055
20
23.505775937679758
30
0
10
-213.0125038090807
20
23.98809895489757
30
0
10
-211.99276113597216
20
23.975926168344621
30
0
10
-210.24716422497275
20
23.582331642122078
30
0
10
-209.50689285292424
20
23.244267401387798
30
0
10
-208.04142745588254
20
22.218938197520565
30
0
10
-207.30179218745977
20
21.472176097529974
30
0
10
-205.62421074219205
20
19.215773033841479
30
-8.8817841970012523e-15
10
-204.75200856790258
20
17.629248129051934
30
-8.8817841970012523e-15
10
-203.90586983500427
20
15.8146977606403
30
-8.8817841970012523e-15
0
LINE
5
110
100
AcDbEntity
8
0
100
AcDbLine
10
-203.90586983500427
20
15.8146977606403
30
-8.8817841970012507e-15
11
-188.37464871603359
21
-17.492113412956535
31
-8.8817841970012523e-15
0
LINE
5
111
100
AcDbEntity
8
0
100
AcDbLine
10
-188.37464871603359
20
-17.492113412956535
30
-8.8817841970012523e-15
11
-142.15295157716437
21
4.061417935819069
31
8.8817841970012523e-15
0
LINE
5
112
100
AcDbEntity
8
0
100
AcDbLine
10
-142.15295157716437
20
4.061417935819069
30
8.8817841970012523e-15
11
-152.50709898981148
21
26.265958718216993
31
8.8817841970012523e-15
0
LINE
5
113
100
AcDbEntity
8
0
100
AcDbLine
10
-152.50709898981148
20
26.265958718216993
30
8.8817841970012523e-15
11
-63.688935860219772
21
67.682548368805513
31
-8.8817841970012523e-15
0
LINE
5
114
100
AcDbEntity
8
0
100
AcDbLine
10
-63.688935860219772
20
67.682548368805513
30
-8.8817841970012523e-15
11
-53.334788447572656
21
45.478007586407614
31
-8.8817841970012523e-15
0
LINE
5
115
100
AcDbEntity
8
0
100
AcDbLine
10
-53.334788447572656
20
45.478007586407614
30
-8.8817841970012523e-15
11
-7.1130913087034298
21
67.031538935183207
31
0
0
LINE
5
116
100
AcDbEntity
8
0
100
AcDbLine
10
-7.1130913087034298
20
67.031538935183207
30
0
11
-1.93601760238002
21
55.929268543984563
31
0
0
ENDSEC
0
SECTION
2
OBJECTS
0
DICTIONARY
5
C
100
AcDbDictionary
3
ACAD_GROUP
350
D
3
ACAD_MLINESTYLE
350
17
0
DICTIONARY
5
D
100
AcDbDictionary
0
DICTIONARY
5
1A
330
C
100
AcDbDictionary
0
DICTIONARY
5
17
100
AcDbDictionary
0
ENDSEC
0
EOF
